<mxfile host="app.diagrams.net" modified="2023-07-14T02:04:30.182Z" agent="Mozilla/5.0 (Windows NT 10.0; Win64; x64) AppleWebKit/537.36 (KHTML, like Gecko) Chrome/114.0.0.0 Safari/537.36" etag="Kb6X2ZT4_gq9EWr48Ufi" version="21.6.2" type="device">
  <diagram id="C5RBs43oDa-KdzZeNtuy" name="Page-1">
    <mxGraphModel dx="1674" dy="788" grid="1" gridSize="10" guides="1" tooltips="1" connect="1" arrows="1" fold="1" page="1" pageScale="1" pageWidth="827" pageHeight="1169" math="0" shadow="0">
      <root>
        <mxCell id="WIyWlLk6GJQsqaUBKTNV-0" />
        <mxCell id="WIyWlLk6GJQsqaUBKTNV-1" parent="WIyWlLk6GJQsqaUBKTNV-0" />
        <mxCell id="68Cwz69TCnHbRyPq-o8u-1" value="AREA" style="rounded=1;whiteSpace=wrap;html=1;fontSize=12;glass=0;strokeWidth=1;shadow=0;" vertex="1" parent="WIyWlLk6GJQsqaUBKTNV-1">
          <mxGeometry x="164" y="210" width="120" height="40" as="geometry" />
        </mxCell>
        <mxCell id="68Cwz69TCnHbRyPq-o8u-2" value="TRABAJA" style="rhombus;whiteSpace=wrap;html=1;shadow=0;fontFamily=Helvetica;fontSize=12;align=center;strokeWidth=1;spacing=6;spacingTop=-4;" vertex="1" parent="WIyWlLk6GJQsqaUBKTNV-1">
          <mxGeometry x="166" y="353.75" width="116" height="115" as="geometry" />
        </mxCell>
        <mxCell id="68Cwz69TCnHbRyPq-o8u-3" value="PROYECTO" style="rounded=1;whiteSpace=wrap;html=1;fontSize=12;glass=0;strokeWidth=1;shadow=0;" vertex="1" parent="WIyWlLk6GJQsqaUBKTNV-1">
          <mxGeometry x="506" y="205" width="120" height="40" as="geometry" />
        </mxCell>
        <mxCell id="68Cwz69TCnHbRyPq-o8u-4" value="EMPLEADO" style="rounded=1;whiteSpace=wrap;html=1;fontSize=12;glass=0;strokeWidth=1;shadow=0;" vertex="1" parent="WIyWlLk6GJQsqaUBKTNV-1">
          <mxGeometry x="349" y="391.25" width="120" height="40" as="geometry" />
        </mxCell>
        <mxCell id="68Cwz69TCnHbRyPq-o8u-5" value="NOMBRE" style="ellipse;whiteSpace=wrap;html=1;" vertex="1" parent="WIyWlLk6GJQsqaUBKTNV-1">
          <mxGeometry x="250.00000000000003" y="480" width="60" height="50" as="geometry" />
        </mxCell>
        <mxCell id="68Cwz69TCnHbRyPq-o8u-6" value="ID" style="ellipse;whiteSpace=wrap;html=1;" vertex="1" parent="WIyWlLk6GJQsqaUBKTNV-1">
          <mxGeometry x="349" y="530" width="40" height="30" as="geometry" />
        </mxCell>
        <mxCell id="68Cwz69TCnHbRyPq-o8u-7" value="TEL" style="ellipse;whiteSpace=wrap;html=1;" vertex="1" parent="WIyWlLk6GJQsqaUBKTNV-1">
          <mxGeometry x="414" y="555" width="50" height="30" as="geometry" />
        </mxCell>
        <mxCell id="68Cwz69TCnHbRyPq-o8u-8" value="DIREC" style="ellipse;whiteSpace=wrap;html=1;" vertex="1" parent="WIyWlLk6GJQsqaUBKTNV-1">
          <mxGeometry x="469" y="545" width="50" height="40" as="geometry" />
        </mxCell>
        <mxCell id="68Cwz69TCnHbRyPq-o8u-9" value="EMAIL" style="ellipse;whiteSpace=wrap;html=1;" vertex="1" parent="WIyWlLk6GJQsqaUBKTNV-1">
          <mxGeometry x="528" y="540" width="50" height="30" as="geometry" />
        </mxCell>
        <mxCell id="68Cwz69TCnHbRyPq-o8u-10" value="" style="endArrow=none;html=1;rounded=0;entryX=1;entryY=1;entryDx=0;entryDy=0;exitX=0.5;exitY=0;exitDx=0;exitDy=0;" edge="1" parent="WIyWlLk6GJQsqaUBKTNV-1" source="68Cwz69TCnHbRyPq-o8u-9" target="68Cwz69TCnHbRyPq-o8u-4">
          <mxGeometry width="50" height="50" relative="1" as="geometry">
            <mxPoint x="346.98" y="740" as="sourcePoint" />
            <mxPoint x="411.02" y="673.75" as="targetPoint" />
          </mxGeometry>
        </mxCell>
        <mxCell id="68Cwz69TCnHbRyPq-o8u-11" value="" style="endArrow=none;html=1;rounded=0;exitX=0.5;exitY=0;exitDx=0;exitDy=0;entryX=0.75;entryY=1;entryDx=0;entryDy=0;" edge="1" parent="WIyWlLk6GJQsqaUBKTNV-1" source="68Cwz69TCnHbRyPq-o8u-8" target="68Cwz69TCnHbRyPq-o8u-4">
          <mxGeometry width="50" height="50" relative="1" as="geometry">
            <mxPoint x="256.98" y="680" as="sourcePoint" />
            <mxPoint x="390.98" y="668.75" as="targetPoint" />
          </mxGeometry>
        </mxCell>
        <mxCell id="68Cwz69TCnHbRyPq-o8u-12" value="" style="endArrow=none;html=1;rounded=0;entryX=0.5;entryY=0;entryDx=0;entryDy=0;exitX=0.5;exitY=1;exitDx=0;exitDy=0;" edge="1" parent="WIyWlLk6GJQsqaUBKTNV-1" target="68Cwz69TCnHbRyPq-o8u-7" source="68Cwz69TCnHbRyPq-o8u-4">
          <mxGeometry width="50" height="50" relative="1" as="geometry">
            <mxPoint x="410" y="531.25" as="sourcePoint" />
            <mxPoint x="534" y="530" as="targetPoint" />
          </mxGeometry>
        </mxCell>
        <mxCell id="68Cwz69TCnHbRyPq-o8u-13" value="" style="endArrow=none;html=1;rounded=0;exitX=0;exitY=1;exitDx=0;exitDy=0;entryX=0.5;entryY=0;entryDx=0;entryDy=0;" edge="1" parent="WIyWlLk6GJQsqaUBKTNV-1" source="68Cwz69TCnHbRyPq-o8u-4" target="68Cwz69TCnHbRyPq-o8u-5">
          <mxGeometry width="50" height="50" relative="1" as="geometry">
            <mxPoint x="400.94000000000005" y="629.75" as="sourcePoint" />
            <mxPoint x="386.98" y="570" as="targetPoint" />
          </mxGeometry>
        </mxCell>
        <mxCell id="68Cwz69TCnHbRyPq-o8u-14" value="" style="endArrow=none;html=1;rounded=0;entryX=0.5;entryY=0;entryDx=0;entryDy=0;exitX=0.25;exitY=1;exitDx=0;exitDy=0;" edge="1" parent="WIyWlLk6GJQsqaUBKTNV-1" source="68Cwz69TCnHbRyPq-o8u-4" target="68Cwz69TCnHbRyPq-o8u-6">
          <mxGeometry width="50" height="50" relative="1" as="geometry">
            <mxPoint x="390.98" y="638.75" as="sourcePoint" />
            <mxPoint x="316.98" y="610" as="targetPoint" />
          </mxGeometry>
        </mxCell>
        <mxCell id="68Cwz69TCnHbRyPq-o8u-15" value="NOMBRE" style="ellipse;whiteSpace=wrap;html=1;" vertex="1" parent="WIyWlLk6GJQsqaUBKTNV-1">
          <mxGeometry x="578" y="120" width="60" height="50" as="geometry" />
        </mxCell>
        <mxCell id="68Cwz69TCnHbRyPq-o8u-16" value="ID PROYECTO" style="ellipse;whiteSpace=wrap;html=1;" vertex="1" parent="WIyWlLk6GJQsqaUBKTNV-1">
          <mxGeometry x="658" y="130" width="92" height="50" as="geometry" />
        </mxCell>
        <mxCell id="68Cwz69TCnHbRyPq-o8u-18" value="DIREC" style="ellipse;whiteSpace=wrap;html=1;" vertex="1" parent="WIyWlLk6GJQsqaUBKTNV-1">
          <mxGeometry x="653" y="250" width="50" height="40" as="geometry" />
        </mxCell>
        <mxCell id="68Cwz69TCnHbRyPq-o8u-20" value="" style="endArrow=none;html=1;rounded=0;exitX=0.75;exitY=0;exitDx=0;exitDy=0;entryX=0.5;entryY=1;entryDx=0;entryDy=0;" edge="1" parent="WIyWlLk6GJQsqaUBKTNV-1" source="68Cwz69TCnHbRyPq-o8u-3" target="68Cwz69TCnHbRyPq-o8u-15">
          <mxGeometry width="50" height="50" relative="1" as="geometry">
            <mxPoint x="558" y="220" as="sourcePoint" />
            <mxPoint x="608" y="170" as="targetPoint" />
          </mxGeometry>
        </mxCell>
        <mxCell id="68Cwz69TCnHbRyPq-o8u-21" value="" style="endArrow=none;html=1;rounded=0;entryX=0;entryY=1;entryDx=0;entryDy=0;exitX=1;exitY=0;exitDx=0;exitDy=0;" edge="1" parent="WIyWlLk6GJQsqaUBKTNV-1" source="68Cwz69TCnHbRyPq-o8u-3" target="68Cwz69TCnHbRyPq-o8u-16">
          <mxGeometry width="50" height="50" relative="1" as="geometry">
            <mxPoint x="634" y="201.25" as="sourcePoint" />
            <mxPoint x="678" y="160" as="targetPoint" />
          </mxGeometry>
        </mxCell>
        <mxCell id="68Cwz69TCnHbRyPq-o8u-24" value="" style="endArrow=none;html=1;rounded=0;entryX=0;entryY=0;entryDx=0;entryDy=0;exitX=0.95;exitY=1;exitDx=0;exitDy=0;exitPerimeter=0;" edge="1" parent="WIyWlLk6GJQsqaUBKTNV-1" source="68Cwz69TCnHbRyPq-o8u-3" target="68Cwz69TCnHbRyPq-o8u-18">
          <mxGeometry width="50" height="50" relative="1" as="geometry">
            <mxPoint x="608" y="300" as="sourcePoint" />
            <mxPoint x="658" y="250" as="targetPoint" />
          </mxGeometry>
        </mxCell>
        <mxCell id="68Cwz69TCnHbRyPq-o8u-25" value="NOMBRE" style="ellipse;whiteSpace=wrap;html=1;" vertex="1" parent="WIyWlLk6GJQsqaUBKTNV-1">
          <mxGeometry x="61.97999999999999" y="110" width="60" height="50" as="geometry" />
        </mxCell>
        <mxCell id="68Cwz69TCnHbRyPq-o8u-27" value="ID AREA" style="ellipse;whiteSpace=wrap;html=1;" vertex="1" parent="WIyWlLk6GJQsqaUBKTNV-1">
          <mxGeometry x="160" y="90" width="70" height="40" as="geometry" />
        </mxCell>
        <mxCell id="68Cwz69TCnHbRyPq-o8u-28" value="" style="endArrow=none;html=1;rounded=0;entryX=0;entryY=0;entryDx=0;entryDy=0;exitX=1;exitY=1;exitDx=0;exitDy=0;" edge="1" parent="WIyWlLk6GJQsqaUBKTNV-1" source="68Cwz69TCnHbRyPq-o8u-25" target="68Cwz69TCnHbRyPq-o8u-1">
          <mxGeometry width="50" height="50" relative="1" as="geometry">
            <mxPoint x="101.97999999999999" y="110" as="sourcePoint" />
            <mxPoint x="135.01999999999995" y="61" as="targetPoint" />
          </mxGeometry>
        </mxCell>
        <mxCell id="68Cwz69TCnHbRyPq-o8u-30" value="" style="endArrow=none;html=1;rounded=0;entryX=0.5;entryY=1;entryDx=0;entryDy=0;exitX=0.5;exitY=0;exitDx=0;exitDy=0;" edge="1" parent="WIyWlLk6GJQsqaUBKTNV-1" source="68Cwz69TCnHbRyPq-o8u-1" target="68Cwz69TCnHbRyPq-o8u-27">
          <mxGeometry width="50" height="50" relative="1" as="geometry">
            <mxPoint x="246.98" y="50" as="sourcePoint" />
            <mxPoint x="261.98" y="40" as="targetPoint" />
          </mxGeometry>
        </mxCell>
        <mxCell id="68Cwz69TCnHbRyPq-o8u-31" value="ASIGNAR" style="rhombus;whiteSpace=wrap;html=1;shadow=0;fontFamily=Helvetica;fontSize=12;align=center;strokeWidth=1;spacing=6;spacingTop=-4;" vertex="1" parent="WIyWlLk6GJQsqaUBKTNV-1">
          <mxGeometry x="508" y="353.75" width="116" height="115" as="geometry" />
        </mxCell>
        <mxCell id="68Cwz69TCnHbRyPq-o8u-35" value="DESCRIPCION" style="ellipse;whiteSpace=wrap;html=1;" vertex="1" parent="WIyWlLk6GJQsqaUBKTNV-1">
          <mxGeometry x="703" y="180" width="120" height="80" as="geometry" />
        </mxCell>
        <mxCell id="68Cwz69TCnHbRyPq-o8u-36" value="" style="endArrow=none;html=1;rounded=0;entryX=0;entryY=0.5;entryDx=0;entryDy=0;exitX=1;exitY=0.5;exitDx=0;exitDy=0;" edge="1" parent="WIyWlLk6GJQsqaUBKTNV-1" source="68Cwz69TCnHbRyPq-o8u-3" target="68Cwz69TCnHbRyPq-o8u-35">
          <mxGeometry width="50" height="50" relative="1" as="geometry">
            <mxPoint x="400" y="420" as="sourcePoint" />
            <mxPoint x="450" y="370" as="targetPoint" />
          </mxGeometry>
        </mxCell>
        <mxCell id="68Cwz69TCnHbRyPq-o8u-37" value="" style="endArrow=none;html=1;rounded=0;entryX=0.5;entryY=1;entryDx=0;entryDy=0;exitX=0.5;exitY=0;exitDx=0;exitDy=0;" edge="1" parent="WIyWlLk6GJQsqaUBKTNV-1" source="68Cwz69TCnHbRyPq-o8u-31" target="68Cwz69TCnHbRyPq-o8u-3">
          <mxGeometry width="50" height="50" relative="1" as="geometry">
            <mxPoint x="400" y="420" as="sourcePoint" />
            <mxPoint x="450" y="370" as="targetPoint" />
          </mxGeometry>
        </mxCell>
        <mxCell id="68Cwz69TCnHbRyPq-o8u-38" value="" style="endArrow=none;html=1;rounded=0;entryX=1;entryY=0.5;entryDx=0;entryDy=0;exitX=0;exitY=0.5;exitDx=0;exitDy=0;" edge="1" parent="WIyWlLk6GJQsqaUBKTNV-1" source="68Cwz69TCnHbRyPq-o8u-4" target="68Cwz69TCnHbRyPq-o8u-2">
          <mxGeometry width="50" height="50" relative="1" as="geometry">
            <mxPoint x="400" y="420" as="sourcePoint" />
            <mxPoint x="450" y="370" as="targetPoint" />
          </mxGeometry>
        </mxCell>
        <mxCell id="68Cwz69TCnHbRyPq-o8u-39" value="" style="endArrow=none;html=1;rounded=0;entryX=0.5;entryY=1;entryDx=0;entryDy=0;exitX=0.5;exitY=0;exitDx=0;exitDy=0;" edge="1" parent="WIyWlLk6GJQsqaUBKTNV-1" source="68Cwz69TCnHbRyPq-o8u-2" target="68Cwz69TCnHbRyPq-o8u-1">
          <mxGeometry width="50" height="50" relative="1" as="geometry">
            <mxPoint x="400" y="420" as="sourcePoint" />
            <mxPoint x="450" y="370" as="targetPoint" />
          </mxGeometry>
        </mxCell>
        <mxCell id="68Cwz69TCnHbRyPq-o8u-40" value="" style="endArrow=none;html=1;rounded=0;exitX=0;exitY=0.5;exitDx=0;exitDy=0;entryX=1;entryY=0.5;entryDx=0;entryDy=0;" edge="1" parent="WIyWlLk6GJQsqaUBKTNV-1" source="68Cwz69TCnHbRyPq-o8u-31" target="68Cwz69TCnHbRyPq-o8u-4">
          <mxGeometry width="50" height="50" relative="1" as="geometry">
            <mxPoint x="480" y="410" as="sourcePoint" />
            <mxPoint x="480" y="410" as="targetPoint" />
          </mxGeometry>
        </mxCell>
      </root>
    </mxGraphModel>
  </diagram>
</mxfile>
